# xmcd
#
# Track frame offsets:
#	150
#	11962
#	23435
#	35055
#	44370
#	56915
#	67595
#	77817
#	89185
#	98865
#	110075
#	121477
#	134375
#	146675
#	156690
#	167905
#	180520
#	190127
#	198840
#	208082
#	220587
#	231167
#	239105
#	247727
#
# Disc length: 3493
#
# Revision: 1
# Processed by: cddbd v1.5.1PL0 Copyright (c) Steve Scherf et al.
# Submitted via: ExactAudioCopy v0.95a5
# Normalized: r0:TDELIM( - )
#
DISCID=630da318
DTITLE=Various Artist - Mark Lamarr's - Rocking Up A Storm
DYEAR=1900
DGENRE=Blues
TTITLE0=Ride Jockey Ride - Lamplighters
TTITLE1=Please Love Me Baby - Five Jets
TTITLE2=Nervous Man Nervous - Big Jay McNeely
TTITLE3=Rockin' With Fes - Roy Byrd
TTITLE4=Rock, Granny, Roll - The Midnighters
TTITLE5=She's Mine - Joe Tex
TTITLE6=Come Back Uncle John - Big John Greer
TTITLE7=Step It Up And Go - Rudy Moore
TTITLE8=Do Right Baby - Gayles, Billy
TTITLE9=Much Later - Jackie Brensten
TTITLE10=You Shocked Me - Topsy, Tiny
TTITLE11=Bacon Fat - Big Daddy and His Boys
TTITLE12=Spasms - Little Willie John
TTITLE13=Clock Tickin' Rhythm - Cecil McNabb, Jr.
TTITLE14=Move - Boyd Bennett
TTITLE15=Broadway - Hand Ballard
TTITLE16=Miss You So - Topsy, Tiny
TTITLE17=Rockyn Up - Ronnie Molleen
TTITLE18=Fat Girl - Otis Redding
TTITLE19=Nothing But Good - Hank Ballard
TTITLE20=A Real Good Time - Eddie Clearwater
TTITLE21=Miss Shake It - Ba Ba Thomas
TTITLE22=Why Don't You Leave It Alone - Ba Ba Thomas
TTITLE23=You Hurt Me - Little Willie John
EXTD=Mark Lamarr's\nRoc-King Up A Storm\n24 Flamin' Cincinnati Fireballs\nfrom the Golden Age\nof Red Hot Rhythm 'N' Blues 'N' Rock 'N' Roll ...\nAs Chosen by\nThe King Of Rockin' Radio!\n\nOriginal King, Deluxe and Federal Recordings\nFeat
EXTD=uring:\nBig Jay McNeely\nJoe Tex\nOtis Redding\nTiny Topsy\nHank Ballard\nLittle Willie John\nBoyd Bennett\nand more...\n
EXTT0=
EXTT1=
EXTT2=
EXTT3=
EXTT4=
EXTT5=
EXTT6=
EXTT7=
EXTT8=
EXTT9=
EXTT10=
EXTT11=
EXTT12=
EXTT13=
EXTT14=
EXTT15=
EXTT16=
EXTT17=
EXTT18=
EXTT19=
EXTT20=
EXTT21=
EXTT22=
EXTT23=
PLAYORDER=
